<svg xmlns="http://www.w3.org/2000/svg" viewBox="0 0 64 64" width="64" height="64" role="img" aria-label="Bobcat">
  <path d="M15 40 q-6 -2 -8 -8" stroke="#b98a52" stroke-width="5" fill="none" stroke-linecap="round"/>
  <ellipse cx="30" cy="40" rx="16" ry="11" fill="#c99a5c"/>
  <g fill="#7a5c38"><circle cx="24" cy="38" r="1.3"/><circle cx="31" cy="42" r="1.3"/><circle cx="37" cy="37" r="1.3"/></g>
  <circle cx="46" cy="30" r="10" fill="#c99a5c"/>
  <path d="M39 22 L37 12 L44 20 Z" fill="#c99a5c"/>
  <path d="M37 12 L38.5 9" stroke="#2a2320" stroke-width="1.5" stroke-linecap="round"/>
  <path d="M52 22 L54 12 L47 20 Z" fill="#c99a5c"/>
  <path d="M54 12 L52.5 9" stroke="#2a2320" stroke-width="1.5" stroke-linecap="round"/>
  <ellipse cx="47" cy="32" rx="4" ry="3" fill="#f4f1ea"/>
  <circle cx="47" cy="31" r="1.3" fill="#2a2320"/>
  <circle cx="43" cy="29" r="1.4" fill="#2a2320"/>
  <circle cx="51" cy="29" r="1.4" fill="#2a2320"/>
  <path d="M26 50 v6 M36 50 v6" stroke="#b98a52" stroke-width="2.5" stroke-linecap="round"/>
</svg>