<svg xmlns="http://www.w3.org/2000/svg" viewBox="0 0 64 64" width="64" height="64" role="img" aria-label="Crane">

  <path d="M30 56 l-3 6 M36 56 l3 6" stroke="#4a423b" stroke-width="2.2" stroke-linecap="round"/>
  <path d="M26 34 q-8 6 -6 16 q2 10 12 10 q10 0 12 -9 q2 -9 -6 -15 Z" fill="#f4f2ee"/>
  <path d="M38 42 q10 2 14 12 q-1 3 -4 2 q-4 -8 -12 -10 Z" fill="#2a2724"/>
  <path d="M28 34 q-2 -14 6 -22 q3 -1 4 2 q-6 8 -4 20 Z" fill="#f4f2ee"/>
  <path d="M31 15 q3 -5 8 -4 q3 3 1 7 q-5 -2 -9 -1 Z" fill="#2a2724"/>
  <ellipse cx="36" cy="11" rx="5" ry="4" fill="#cc3b34"/>
  <path d="M38 13 l10 -2 -9 5 Z" fill="#c9a24a"/>
  <circle cx="35" cy="12.5" r="1.1" fill="#1f1c1a"/>

</svg>
