<svg xmlns="http://www.w3.org/2000/svg" viewBox="0 0 64 64" width="64" height="64" role="img" aria-label="Monarch Butterfly">
  <path d="M32 20 q-2 -14 -14 -16 q-12 -1 -14 10 q-1 10 10 14 q10 4 18 -4 Z" fill="#2a2018"/>
  <path d="M32 20 q2 -14 14 -16 q12 -1 14 10 q1 10 -10 14 q-10 4 -18 -4 Z" fill="#2a2018"/>
  <path d="M31 21 q-3 -12 -13 -14 q-10 -1 -12 8 q-1 9 9 12 q9 3 16 -6 Z" fill="#f2921c"/>
  <path d="M33 21 q3 -12 13 -14 q10 -1 12 8 q1 9 -9 12 q-9 3 -16 -6 Z" fill="#f2921c"/>
  <path d="M20 12 l3 4 M14 11 l2 5 M9 15 l4 3 M22 20 l-8 -2 M19 24 l-7 1" stroke="#2a2018" stroke-width="1" opacity="0.6" fill="none"/>
  <path d="M44 12 l-3 4 M50 11 l-2 5 M55 15 l-4 3 M42 20 l8 -2 M45 24 l7 1" stroke="#2a2018" stroke-width="1" opacity="0.6" fill="none"/>
  <circle cx="10" cy="17" r="1.4" fill="#fff"/>
  <circle cx="16" cy="10" r="1.2" fill="#fff"/>
  <circle cx="54" cy="17" r="1.4" fill="#fff"/>
  <circle cx="48" cy="10" r="1.2" fill="#fff"/>
  <path d="M32 34 q-2 -12 -12 -10 q-10 2 -8 12 q1 8 9 9 q8 1 11 -6 Z" fill="#2a2018"/>
  <path d="M32 34 q2 -12 12 -10 q10 2 8 12 q-1 8 -9 9 q-8 1 -11 -6 Z" fill="#2a2018"/>
  <path d="M31 35 q-2 -9 -10 -7.5 q-8 1.5 -6.5 9.5 q1 6 7.5 6.5 q6.5 0.5 9 -8 Z" fill="#f2921c"/>
  <path d="M33 35 q2 -9 10 -7.5 q8 1.5 6.5 9.5 q-1 6 -7.5 6.5 q-6.5 0.5 -9 -8 Z" fill="#f2921c"/>
  <circle cx="9" cy="34" r="1.3" fill="#fff"/>
  <circle cx="13" cy="41" r="1.1" fill="#fff"/>
  <circle cx="55" cy="34" r="1.3" fill="#fff"/>
  <circle cx="51" cy="41" r="1.1" fill="#fff"/>
  <ellipse cx="32" cy="32" rx="3.2" ry="17" fill="#3a2a1c"/>
  <ellipse cx="32" cy="18" rx="2.6" ry="6" fill="#2a2018"/>
  <path d="M28 10 q-3 -6 -8 -6 M36 10 q3 -6 8 -6" stroke="#2a2018" stroke-width="1.4" fill="none" stroke-linecap="round"/>
  <circle cx="19.6" cy="4" r="1.4" fill="#2a2018"/>
  <circle cx="44.4" cy="4" r="1.4" fill="#2a2018"/>
</svg>
