<svg xmlns="http://www.w3.org/2000/svg" viewBox="0 0 64 64" width="64" height="64" role="img" aria-label="Pelican">
  <path d="M18 45 Q6 40 0 43 Q4 51 12 55 Q17 52 18 45 Z" fill="#b9c2cc"/>
  <ellipse cx="27" cy="41" rx="17" ry="12" fill="#f4f1ea"/>
  <path d="M16 34 Q28 29 38 38 Q28 47 16 42 Z" fill="#dcd6c6"/>
  <circle cx="44" cy="27" r="11" fill="#f4f1ea"/>
  <path d="M35 33 Q40 22 47 20" fill="none" stroke="#f4f1ea" stroke-width="8" stroke-linecap="round"/>
  <path d="M41 22 Q56 18 62 23 Q65 26 61 28.5 Q57 30.5 58.5 26.5 Q49 25 41 27 Z" fill="#e3d7bd"/>
  <path d="M58.5 26.5 Q63.5 27.5 60.5 31.5 Q57.5 30 58.5 26.5 Z" fill="#c9ad6e"/>
  <path d="M41 27 Q39 38 47 43 Q55 40 54 30 Q47.5 32 41 27 Z" fill="#f2b33a"/>
  <circle cx="47" cy="24" r="1.7" fill="#2a2320"/>
  <path d="M24 51 Q22 55 18 57 Q23 58 27 55 Z" fill="#f2b33a"/>
  <path d="M31 51 Q31 55 28 58 Q33 58 35 54 Z" fill="#f2b33a"/>
</svg>
