<svg xmlns="http://www.w3.org/2000/svg" viewBox="0 0 64 64" width="64" height="64" role="img" aria-label="Phillie Phanatic">
  <ellipse cx="30" cy="55" rx="8" ry="4.5" fill="#c62828"/>
  <ellipse cx="21" cy="56" rx="8" ry="4.5" fill="#c62828"/>
  <path d="M26.0 14.0 L30.0 18.5 L35.5 16.2 L37.2 21.9 L43.2 22.3 L42.2 28.2 L47.4 31.1 L44.0 36.0 L47.4 40.9 L42.2 43.8 L43.2 49.7 L37.2 50.1 L35.5 55.8 L30.0 53.5 L26.0 58.0 L22.0 53.5 L16.5 55.8 L14.8 50.1 L8.8 49.7 L9.8 43.8 L4.6 40.9 L8.0 36.0 L4.6 31.1 L9.8 28.2 L8.8 22.3 L14.8 21.9 L16.5 16.2 L22.0 18.5 Z" fill="#3aaa35"/>
  <!-- snout -->
  <path d="M30 30 q10 -1 22 3 q6 3 6 9 q0 6 -6 8 q-12 3 -22 1 Z" fill="#57c23a"/>
  <ellipse cx="54.5" cy="41" rx="5" ry="7" fill="#7a1717"/>
  <path d="M52 47 q5 7 9 3 q-3 6 -8 3 Z" fill="#d33030"/>
  <!-- eyes on the head -->
  <circle cx="19" cy="19" r="8.5" fill="#fff"/>
  <circle cx="31" cy="19" r="8.5" fill="#fff"/>
  <circle cx="21" cy="21" r="3.6" fill="#1b3b8a"/>
  <circle cx="30" cy="21" r="3.6" fill="#1b3b8a"/>
  <circle cx="22.2" cy="19.6" r="1.1" fill="#fff"/>
  <circle cx="31.2" cy="19.6" r="1.1" fill="#fff"/>
  <g stroke="#151515" stroke-width="1.5" stroke-linecap="round" fill="none">
    <path d="M13 13 q1 -4 4 -5"/><path d="M18 11 q1 -4 3 -4"/>
    <path d="M27 11 q1 -4 4 -4"/><path d="M35 12 q0 -4 3 -5"/>
  </g>
</svg>
